<svg xmlns="http://www.w3.org/2000/svg" aria-hidden="true" style="position:absolute;width:0;height:0;overflow:hidden"><defs>
<symbol id="icon-burger-menu" viewBox="0 0 32 32">
<path d="M1.333 16c0-.736.597-1.333 1.333-1.333h26.667a1.333 1.333 0 0 1 0 2.666H2.666A1.333 1.333 0 0 1 1.333 16zm0 8c0-.736.597-1.333
 1.333-1.333h26.667a1.333 1.333 0 0 1 0 2.666H2.666A1.333 1.333 0 0 1 1.333 24zm0-16c0-.736.597-1.333 1.333-1.333h26.667a1.333 1.333
  0 0 1 0 2.666H2.666A1.333 1.333 0 0 1 1.333 8z"/></symbol>
<symbol id="icon-Close-round" viewBox="0 0 32 32">
<path d="M9.74 9.74a1.385 1.385 0 0 1 1.966 0l4.293 4.293 4.293-4.293a1.391 1.391 0 0 1 1.967 1.967L17.966 16l4.293 4.293a1.39 1.39 0 1 1-1.966
 1.966l-4.295-4.293-4.295 4.293a1.39 1.39 0 1 1-1.966-1.966l4.295-4.295-4.293-4.293a1.385 1.385 0 0 1 0-1.966z"/><path d="M16 4C9.373 4 4 9.373
  4 16s5.373 12 12 12 12-5.373 12-12S22.627 4 16 4zM1.333 16C1.333 7.9 7.9 1.333 16 1.333S30.667 7.9 30.667 16 24.1 30.667 16 30.667 1.333 24.1 1.333
   16z"/></symbol></defs></svg>