<svg xmlns="http://www.w3.org/2000/svg" aria-hidden="true" style="position:absolute;width:0;height:0;overflow:hidden"><defs><symbol id="icon-braces" viewBox="0 0 45 32"><path fill="#ff3f3a" d="M28.8 14.281c0-.471.207-.917.567-1.221L44.8.001v30.4a1.6 1.6 0 0 1-1.6 1.6H30.4a1.6 1.6 0 0 1-1.6-1.6V14.282zM0 14.281c0-.471.207-.917.567-1.221L16.001.001v30.4a1.6 1.6 0 0 1-1.6 1.6h-12.8a1.6 1.6 0 0 1-1.6-1.6V14.282z" style="fill:var(--color1, #ff3f3a)"/></symbol><symbol id="icon-Calendar" viewBox="0 0 30 32"><path fill="#787a80" d="M9.412 2.511c.693 0 1.255.562 1.255 1.255v.627h8.784v-.627a1.255 1.255 0 0 1 2.51 0v.627h1.569a5.02 5.02 0 0 1 5.019 5.02v15.059a5.02 5.02 0 0 1-5.019 5.02H6.589a5.02 5.02 0 0 1-5.02-5.019V9.414a5.02 5.02 0 0 1 5.02-5.02h1.569v-.627c0-.693.562-1.255 1.255-1.255zM8.157 6.903H6.588a2.51 2.51 0 0 0-2.51 2.51v1.569h21.961V9.413a2.51 2.51 0 0 0-2.51-2.51H21.96v.627a1.255 1.255 0 0 1-2.51 0v-.627h-8.784v.627a1.255 1.255 0 0 1-2.51 0v-.627zm17.883 6.588H4.079v10.98a2.51 2.51 0 0 0 2.51 2.51H23.53a2.51 2.51 0 0 0 2.51-2.51v-10.98z" style="fill:var(--color2, #787a80)"/></symbol><symbol id="icon-Chat" viewBox="0 0 32 32"><path  d="M29.231 14.091a10.336 10.336 0 0 1-1.307 3.716c.05.285.076.572.076.861 0 1.004-.291 1.964-.83 2.837-.269.436-.338.946-.365 1.283-.03.387-.02.81.007 1.216.031.456.087.934.151 1.386a27.95 27.95 0 0 0-1.623-.426 11.645 11.645 0 0 0-1.321-.23c-.362-.037-.885-.066-1.353.085a10.837 10.837 0 0 1-3.334.515c-1.411 0-2.706-.25-3.842-.685a17.62 17.62 0 0 1-5.423-.583c2.103 2.432 5.569 3.935 9.265 3.935 1.444 0 2.83-.222 4.107-.629h.012c.033-.001.124-.003.294.015.268.028.611.089 1.008.179.79.178 1.677.441 2.369.661 1.467.466 2.888-.814 2.626-2.303a21.038 21.038 0 0 1-.276-2.1 5.99 5.99 0 0 1-.01-.825 1.48 1.48 0 0 1 .021-.167c.75-1.243 1.182-2.658 1.182-4.164 0-1.698-.527-3.249-1.435-4.577z" /><path  d="M7.462 7.599c-1.797 1.374-2.796 3.179-2.796 5.069 0 .943.245 1.851.706 2.695.175.322.225.653.243.878.019.245.01.497-.012.732a11.765 11.765 0 0 1-.266 1.531 31.636 31.636 0 0 1-.511 1.887 36.69 36.69 0 0 1 2.204-.731c.59-.172 1.185-.321 1.716-.405.457-.072 1.119-.143 1.69.054a12.96 12.96 0 0 0 4.231.693c2.863 0 5.405-.889 7.204-2.264s2.796-3.179 2.796-5.069-.999-3.695-2.796-5.069c-1.798-1.375-4.341-2.264-7.204-2.264S9.262 6.225 7.463 7.6zm-1.62-2.118c2.303-1.761 5.427-2.813 8.824-2.813s6.52 1.051 8.824 2.813c2.305 1.762 3.843 4.291 3.843 7.187s-1.538 5.425-3.843 7.187c-2.303 1.761-5.428 2.813-8.824 2.813a15.64 15.64 0 0 1-5.054-.823c-.002.004-.128-.008-.45.043a11.86 11.86 0 0 0-1.385.331c-1.074.313-2.28.757-3.199 1.114-1.591.619-3.213-.909-2.677-2.537.284-.863.619-1.953.838-2.895.11-.474.181-.873.208-1.168.009-.103.012-.177.011-.228a8.233 8.233 0 0 1-.959-3.837c0-2.896 1.538-5.425 3.843-7.187z" /></symbol><symbol id="icon-check" viewBox="0 0 32 32"><path fill="#ff3f3a" d="M16 30.667c8.087 0 14.667-6.579 14.667-14.667 0-1.396-.195-2.771-.581-4.089a1.222 1.222 0 1 0-2.346.686c.32 1.095.482 2.24.482 3.403 0 6.739-5.483 12.222-12.222 12.222S3.778 22.739 3.778 16 9.261 3.778 16 3.778c2.449 0 4.806.716 6.815 2.071a1.222 1.222 0 0 0 1.366-2.027A14.574 14.574 0 0 0 16 1.334c-8.087 0-14.667 6.579-14.667 14.667S7.913 30.668 16 30.668z" style="fill:var(--color1, #ff3f3a)"/><path fill="#ff3f3a" d="M29.723 3.058 15.999 16.781l-4.391-4.39a1.332 1.332 0 1 0-1.885 1.885l5.333 5.333c.261.261.601.391.943.391s.682-.13.943-.391L31.609 4.942a1.332 1.332 0 1 0-1.885-1.885z" style="fill:var(--color1, #ff3f3a)"/></symbol><symbol id="icon-Clock" viewBox="0 0 30 32"><path fill="#787a80" d="M16.313 9.097a1.255 1.255 0 0 0-2.51 0v6.902c0 .333.132.652.368.887l3.765 3.765a1.255 1.255 0 0 0 1.775-1.775l-3.397-3.397V9.097z" style="fill:var(--color2, #787a80)"/><path fill="#787a80" d="M15.059 2.195c-7.624 0-13.804 6.18-13.804 13.804s6.18 13.804 13.804 13.804c7.624 0 13.804-6.18 13.804-13.804S22.683 2.195 15.059 2.195zM3.764 15.999c0-6.238 5.057-11.294 11.294-11.294s11.294 5.057 11.294 11.294c0 6.238-5.057 11.294-11.294 11.294S3.764 22.237 3.764 15.999z" style="fill:var(--color2, #787a80)"/></symbol><symbol id="icon-divider" viewBox="0 0 2 32"><path fill="none" stroke="#787a80" stroke-linecap="round" stroke-width="1.882" d="M.941 1.882v28.235" style="stroke:var(--color2, #787a80)"/></symbol><symbol id="icon-dot" viewBox="0 0 320 32"><path fill="none" stroke="#b3b7bc" stroke-linecap="round" stroke-width="32" d="M16 16h288" style="stroke:var(--color4, #b3b7bc)"/></symbol><symbol id="icon-ellipse" viewBox="0 0 32 32"><path fill="#ff3f3a" d="M32 16c0 8.837-7.163 16-16 16S0 24.837 0 16 7.163 0 16 0s16 7.163 16 16z" style="fill:var(--color1, #ff3f3a)"/></symbol><symbol id="icon-Facebook" viewBox="0 0 32 32"><path  d="m23.417 1.339-3.703-.006c-4.16 0-6.849 2.833-6.849 7.219v3.328H9.142a.59.59 0 0 0-.582.598v4.823c0 .33.261.598.582.598h3.723v12.169a.59.59 0 0 0 .582.598h4.858a.59.59 0 0 0 .582-.598V17.899h4.353a.59.59 0 0 0 .582-.598l.002-4.823c0-.159-.062-.311-.171-.423s-.258-.175-.412-.175h-4.355V9.058c0-1.356.315-2.045 2.034-2.045l2.495-.001a.59.59 0 0 0 .582-.598V1.936a.59.59 0 0 0-.581-.598z"/></symbol><symbol id="icon-Heart" viewBox="0 0 32 32"><path fill="#ff3f3a" d="M15.999 26.543c-6.132-3.493-9.552-6.964-11.206-9.976-1.693-3.083-1.545-5.679-.606-7.522 1.931-3.788 7.421-4.999 10.766-.768L15.999 9.6l1.046-1.323c3.346-4.231 8.836-3.019 10.767.768.939 1.843 1.087 4.439-.606 7.522-1.654 3.012-5.074 6.483-11.207 9.976zM16 5.475C11.294 1.004 4.353 2.852 1.812 7.835c-1.394 2.735-1.413 6.27.644 10.016 2.039 3.713 6.104 7.633 12.898 11.388l.645.356.645-.356c6.795-3.755 10.86-7.675 12.899-11.388 2.057-3.746 2.038-7.281.644-10.016-2.54-4.983-9.482-6.831-14.188-2.36z" style="fill:var(--color1, #ff3f3a)"/></symbol><symbol id="icon-inner-blog1" viewBox="0 0 105 32"><path fill="#424551" d="M6.298 10.312a5.892 5.892 0 0 1 11.784 0v4.876a5.892 5.892 0 0 1-11.784 0v-4.876zm5.892-3.861a3.86 3.86 0 0 0-3.86 3.86v4.876a3.86 3.86 0 1 0 7.72 0v-4.876a3.86 3.86 0 0 0-3.86-3.86z" style="fill:var(--color6, #424551)"/><path fill="#424551" d="M4.064 12.547c.561 0 1.016.455 1.016 1.016v1.625a7.111 7.111 0 0 0 14.222 0v-1.625a1.016 1.016 0 0 1 2.032 0v1.625a9.143 9.143 0 0 1-18.286 0v-1.625c0-.561.455-1.016 1.016-1.016z" style="fill:var(--color6, #424551)"/><path fill="#424551" d="M12.19 23.112c.561 0 1.016.455 1.016 1.016v1.422h2.235a1.016 1.016 0 0 1 0 2.032H8.939a1.016 1.016 0 0 1 0-2.032h2.235v-1.422c0-.561.455-1.016 1.016-1.016zM36.94 17.021c.59 0 1.109-.078 1.557-.235a3.234 3.234 0 0 0 1.141-.651c.313-.284.547-.622.704-1.013s.235-.821.235-1.291c0-.974-.302-1.735-.907-2.283-.597-.548-1.508-.821-2.731-.821h-2.453v6.293h2.453zm0-7.925c.967 0 1.806.114 2.517.341.718.22 1.312.537 1.781.949s.818.91 1.045 1.493c.235.583.352 1.234.352 1.952 0 .711-.124 1.362-.373 1.952s-.615 1.099-1.099 1.525c-.477.427-1.07.761-1.781 1.003-.704.235-1.518.352-2.443.352h-2.453v5.717h-2.059V9.095h4.512zm11.845 4.309c.789 0 1.5.132 2.133.395s1.173.636 1.621 1.12c.448.483.789 1.07 1.024 1.76.242.683.363 1.447.363 2.293 0 .853-.121 1.621-.363 2.304-.235.683-.576 1.266-1.024 1.749s-.989.857-1.621 1.12c-.633.256-1.344.384-2.133.384-.797 0-1.515-.128-2.155-.384-.633-.263-1.173-.637-1.621-1.12s-.793-1.067-1.035-1.749c-.235-.683-.352-1.451-.352-2.304 0-.846.117-1.611.352-2.293.242-.69.587-1.277 1.035-1.76s.988-.857 1.621-1.12c.64-.263 1.358-.395 2.155-.395zm0 9.643c1.067 0 1.863-.355 2.389-1.067.526-.718.789-1.717.789-2.997 0-1.287-.263-2.29-.789-3.008s-1.323-1.077-2.389-1.077c-.541 0-1.013.092-1.419.277a2.676 2.676 0 0 0-1.003.8c-.263.349-.462.779-.597 1.291a7.004 7.004 0 0 0-.192 1.717c0 1.28.263 2.279.789 2.997.533.711 1.34 1.067 2.421 1.067zm14.589-6.902c-.355-.476-.739-.807-1.152-.992a3.247 3.247 0 0 0-1.387-.288c-1.003 0-1.774.359-2.315 1.077s-.811 1.742-.811 3.072c0 .704.06 1.308.181 1.813.121.498.299.91.533 1.237.235.32.523.555.864.704s.729.224 1.163.224c.626 0 1.17-.142 1.632-.427.469-.285.9-.686 1.291-1.205v-5.216zm1.899-7.477v15.712h-1.131c-.27 0-.441-.131-.512-.395l-.171-1.312c-.462.555-.988 1.003-1.579 1.344s-1.273.512-2.048.512c-.619 0-1.18-.117-1.685-.352-.505-.242-.935-.594-1.291-1.056s-.629-1.038-.821-1.728-.288-1.483-.288-2.379c0-.797.107-1.536.32-2.219.213-.69.519-1.287.917-1.792s.885-.9 1.461-1.184c.583-.292 1.237-.437 1.963-.437.661 0 1.227.114 1.696.341.477.22.9.53 1.269.928V8.668h1.899zm10.519 6.827c-.057.078-.114.139-.171.181s-.135.064-.235.064a.65.65 0 0 1-.352-.128 5.02 5.02 0 0 0-.48-.299 3.366 3.366 0 0 0-.693-.288c-.27-.092-.605-.139-1.003-.139-.533 0-1.003.096-1.408.288a2.704 2.704 0 0 0-1.024.811c-.27.356-.477.786-.619 1.291a6.567 6.567 0 0 0-.203 1.696c0 .654.075 1.237.224 1.749.149.505.359.931.629 1.28.277.341.608.605.992.789.391.178.829.267 1.312.267.462 0 .843-.053 1.141-.16.299-.114.544-.238.736-.373.199-.135.363-.256.491-.363.135-.114.267-.171.395-.171.156 0 .277.061.363.181l.533.693c-.235.291-.501.541-.8.747s-.622.381-.971.523c-.341.135-.701.235-1.077.299s-.761.096-1.152.096a4.775 4.775 0 0 1-1.888-.373 4.344 4.344 0 0 1-1.504-1.077c-.427-.477-.761-1.059-1.003-1.749s-.363-1.476-.363-2.357a7.2 7.2 0 0 1 .331-2.229 5.126 5.126 0 0 1 .981-1.76 4.497 4.497 0 0 1 1.589-1.163c.633-.277 1.358-.416 2.176-.416.761 0 1.429.124 2.005.373a4.735 4.735 0 0 1 1.547 1.035l-.501.683zm8.523 4.021c-.875.029-1.621.099-2.24.213-.612.107-1.113.249-1.504.427-.384.178-.665.387-.843.629a1.371 1.371 0 0 0-.256.811c0 .285.046.53.139.736s.217.377.373.512c.163.128.352.224.565.288a2.8 2.8 0 0 0 .704.085c.334 0 .64-.032.917-.096.277-.071.537-.171.779-.299a4.09 4.09 0 0 0 .704-.459c.228-.178.448-.381.661-.608v-2.24zm-6.133-4.416c.597-.576 1.241-1.006 1.931-1.291s1.454-.427 2.293-.427c.604 0 1.141.1 1.611.299s.864.476 1.184.832c.32.356.562.786.725 1.291s.245 1.059.245 1.664v6.912h-.843c-.185 0-.327-.029-.427-.085-.1-.064-.178-.185-.235-.363l-.213-1.024c-.284.263-.562.498-.832.704-.27.199-.555.37-.853.512a4.607 4.607 0 0 1-.96.309 4.939 4.939 0 0 1-1.12.117c-.42 0-.814-.057-1.184-.171a2.88 2.88 0 0 1-.971-.533 2.599 2.599 0 0 1-.651-.885c-.156-.363-.235-.789-.235-1.28 0-.427.117-.835.352-1.227.235-.398.615-.75 1.141-1.056s1.212-.555 2.059-.747c.846-.199 1.884-.313 3.115-.341v-.843c0-.839-.181-1.472-.544-1.899-.363-.434-.892-.651-1.589-.651-.469 0-.864.06-1.184.181a4.153 4.153 0 0 0-.821.395c-.228.142-.427.274-.597.395a.855.855 0 0 1-.491.171.569.569 0 0 1-.331-.096.99.99 0 0 1-.235-.256l-.341-.608zm17.175.256a.422.422 0 0 1-.395.235c-.107 0-.228-.039-.363-.117s-.302-.164-.501-.256a3.851 3.851 0 0 0-.693-.267 3.211 3.211 0 0 0-.96-.128c-.32 0-.608.043-.864.128a2.04 2.04 0 0 0-.661.331 1.554 1.554 0 0 0-.416.501 1.345 1.345 0 0 0-.139.608c0 .277.078.509.235.693.164.185.377.345.64.48s.562.256.896.363c.334.099.676.21 1.024.331.356.114.701.242 1.035.384s.633.32.896.533c.263.213.473.477.629.789.164.306.245.675.245 1.109 0 .498-.089.96-.267 1.387a3.09 3.09 0 0 1-.789 1.099c-.348.306-.775.547-1.28.725s-1.088.267-1.749.267c-.754 0-1.436-.121-2.048-.363a5.259 5.259 0 0 1-1.557-.949l.448-.725c.057-.093.124-.163.203-.213s.178-.075.299-.075c.128 0 .263.05.405.149s.313.21.512.331c.206.121.455.231.747.331s.654.149 1.088.149c.37 0 .693-.046.971-.139.277-.099.508-.231.693-.395s.32-.352.405-.565c.093-.213.139-.441.139-.683 0-.299-.082-.544-.245-.736a1.866 1.866 0 0 0-.629-.501 4.658 4.658 0 0 0-.907-.363l-1.035-.331a14.34 14.34 0 0 1-1.035-.384c-.334-.149-.633-.334-.896-.555s-.476-.491-.64-.811c-.156-.327-.235-.722-.235-1.184 0-.413.085-.807.256-1.184.171-.384.42-.718.747-1.003.327-.292.729-.523 1.205-.693s1.02-.256 1.632-.256c.711 0 1.348.114 1.909.341.569.22 1.06.526 1.472.917l-.427.693zm6.253 9.195c-.853 0-1.511-.238-1.973-.715-.455-.477-.683-1.163-.683-2.059v-6.613h-1.301a.44.44 0 0 1-.288-.096c-.078-.071-.117-.178-.117-.32v-.757l1.771-.224.437-3.339a.428.428 0 0 1 .438-.363h.96v3.723h3.125v1.376h-3.125v6.485c0 .455.11.793.331 1.013s.505.331.853.331c.199 0 .37-.025.512-.075.149-.057.277-.117.384-.181s.195-.121.267-.171c.078-.057.146-.085.203-.085.1 0 .188.061.267.181l.555.907a3.607 3.607 0 0 1-1.184.725 4.087 4.087 0 0 1-1.429.256z" style="fill:var(--color6, #424551)"/></symbol><symbol id="icon-inner-blog2" viewBox="0 0 87 32"><path fill="#424551" d="M16.323 14.385a2.031 2.031 0 0 1 0 3.228l-4.653 3.556c-1.337 1.022-3.266.068-3.266-1.614v-7.112c0-1.683 1.929-2.636 3.266-1.614l4.653 3.556zm-1.234 1.614-4.653-3.556v7.112l4.653-3.556z" style="fill:var(--color6, #424551)"/><path fill="#424551" d="M12.19 6.856a9.143 9.143 0 1 0 0 18.286 9.143 9.143 0 0 0 0-18.286zM1.016 15.999c0-6.171 5.003-11.175 11.175-11.175s11.175 5.003 11.175 11.175c0 6.172-5.003 11.175-11.175 11.175S1.016 22.171 1.016 15.999zM44.855 9.096l-6.229 15.285H36.77L30.541 9.096h1.653c.185 0 .334.046.448.139s.199.21.256.352l4.309 10.784c.093.242.181.505.267.789.093.285.174.583.245.896.071-.313.146-.611.224-.896s.163-.547.256-.789l4.299-10.784a.764.764 0 0 1 .245-.331.692.692 0 0 1 .459-.16h1.653zm3.568 4.48v10.805h-1.899V13.576h1.899zm.405-3.392c0 .185-.039.359-.117.523a1.455 1.455 0 0 1-.299.427 1.341 1.341 0 0 1-.437.288c-.163.071-.338.107-.523.107a1.301 1.301 0 0 1-.939-.395 1.544 1.544 0 0 1-.288-.427c-.071-.164-.107-.338-.107-.523s.035-.359.107-.523a1.33 1.33 0 0 1 .288-.437c.121-.128.26-.228.416-.299.163-.071.338-.107.523-.107s.359.036.523.107c.171.071.316.171.437.299.128.121.227.267.299.437.078.164.117.338.117.523zm9.755 5.962c-.355-.476-.739-.807-1.152-.992a3.25 3.25 0 0 0-1.387-.288c-1.003 0-1.774.359-2.315 1.077s-.811 1.742-.811 3.072c0 .704.06 1.308.181 1.813.121.498.299.91.533 1.237.235.32.523.555.864.704s.729.224 1.163.224c.626 0 1.17-.142 1.632-.427.469-.285.9-.686 1.291-1.205v-5.216zm1.898-7.477v15.712H59.35c-.27 0-.441-.131-.512-.395l-.171-1.312c-.462.555-.989 1.003-1.579 1.344s-1.273.512-2.048.512a3.94 3.94 0 0 1-1.685-.352c-.505-.242-.935-.594-1.291-1.056s-.629-1.038-.821-1.728c-.192-.69-.288-1.483-.288-2.379 0-.797.107-1.536.32-2.219.213-.69.519-1.287.917-1.792s.885-.9 1.461-1.184c.583-.292 1.237-.437 1.963-.437.661 0 1.227.114 1.696.341.477.22.9.53 1.269.928V8.668h1.899zM70.712 17.8c0-.441-.064-.843-.192-1.205a2.55 2.55 0 0 0-.544-.949 2.313 2.313 0 0 0-.864-.619 2.88 2.88 0 0 0-1.163-.224c-.91 0-1.632.267-2.165.8-.526.526-.853 1.259-.981 2.197h5.909zm1.536 5.066a3.725 3.725 0 0 1-.843.747 5.373 5.373 0 0 1-1.056.512c-.37.135-.754.235-1.152.299a6.735 6.735 0 0 1-1.184.107 5.62 5.62 0 0 1-2.069-.373 4.689 4.689 0 0 1-1.632-1.109c-.455-.491-.811-1.095-1.067-1.813s-.384-1.543-.384-2.475c0-.754.114-1.458.341-2.112a4.989 4.989 0 0 1 1.003-1.696c.434-.484.963-.86 1.589-1.131.626-.277 1.33-.416 2.112-.416.647 0 1.244.11 1.792.331a3.894 3.894 0 0 1 1.429.939c.405.405.722.91.949 1.515.228.597.341 1.28.341 2.048 0 .299-.032.498-.096.597s-.185.149-.363.149h-7.221c.021.683.114 1.276.277 1.781.171.505.405.928.704 1.269.299.334.654.587 1.067.757.412.163.875.245 1.387.245.476 0 .885-.053 1.227-.16a6.194 6.194 0 0 0 1.515-.715c.171-.114.316-.171.437-.171.156 0 .277.061.363.181l.533.693zm7.058-9.461c.789 0 1.5.132 2.133.395s1.173.636 1.621 1.12c.448.483.789 1.07 1.024 1.76.242.683.363 1.447.363 2.293 0 .853-.121 1.621-.363 2.304-.235.683-.576 1.266-1.024 1.749s-.989.857-1.621 1.12c-.633.256-1.344.384-2.133.384-.796 0-1.515-.128-2.155-.384-.633-.263-1.173-.637-1.621-1.12s-.793-1.067-1.035-1.749c-.235-.683-.352-1.451-.352-2.304 0-.846.117-1.611.352-2.293.242-.69.587-1.277 1.035-1.76s.988-.857 1.621-1.12c.64-.263 1.358-.395 2.155-.395zm0 9.643c1.067 0 1.863-.355 2.389-1.067.526-.718.789-1.717.789-2.997 0-1.287-.263-2.29-.789-3.008s-1.323-1.077-2.389-1.077c-.54 0-1.013.092-1.419.277a2.676 2.676 0 0 0-1.003.8c-.263.349-.462.779-.597 1.291a7.004 7.004 0 0 0-.192 1.717c0 1.28.263 2.279.789 2.997.533.711 1.34 1.067 2.421 1.067z" style="fill:var(--color6, #424551)"/></symbol><symbol id="icon-inner-blog3" viewBox="0 0 93 32"><path fill="#424551" d="M8.127 17.525c0-.561.455-1.016 1.016-1.016h6.095a1.016 1.016 0 0 1 0 2.032H9.143a1.016 1.016 0 0 1-1.016-1.016zM8.127 21.334c0-.561.455-1.016 1.016-1.016h3.048a1.016 1.016 0 0 1 0 2.032H9.143a1.016 1.016 0 0 1-1.016-1.016z" style="fill:var(--color6, #424551)"/><path fill="#424551" d="M9.187 5.378c.191-.191.449-.298.718-.298h6.857a4.063 4.063 0 0 1 4.063 4.064v13.714a4.063 4.063 0 0 1-4.063 4.063H7.619a4.062 4.062 0 0 1-4.063-4.064V11.429c0-.269.107-.528.298-.718l5.333-5.333zm.464 2.409v3.389H6.262l3.389-3.389zm-4.063 5.42v9.651c0 1.122.91 2.032 2.032 2.032h9.143c1.122 0 2.032-.91 2.032-2.032V9.144c0-1.122-.91-2.032-2.032-2.032h-5.079v5.079c0 .561-.455 1.016-1.016 1.016H5.589zM40.546 18.706l-2.4-6.219a12.493 12.493 0 0 1-.448-1.429 11.469 11.469 0 0 1-.459 1.44l-2.4 6.208h5.707zm4.309 5.675h-1.6c-.185 0-.334-.046-.448-.139s-.199-.21-.256-.352l-1.429-3.691h-6.859l-1.429 3.691c-.043.128-.124.242-.245.341s-.27.149-.448.149h-1.6l6.112-15.285h2.091l6.112 15.285zm3.324-8.64c.341-.74.761-1.316 1.259-1.728.498-.42 1.106-.629 1.824-.629.227 0 .444.025.651.075.213.05.402.128.565.235l-.139 1.419c-.043.178-.149.267-.32.267-.1 0-.245-.021-.437-.064s-.409-.064-.651-.064c-.341 0-.647.05-.917.149a2.18 2.18 0 0 0-.715.448 3.166 3.166 0 0 0-.565.725 6.283 6.283 0 0 0-.448.981v6.827h-1.909V13.577h1.088c.206 0 .348.039.427.117s.132.213.16.405l.128 1.643zm15.995 8.64h-1.899v-9.216h-5.568v6.485c0 .455.11.793.331 1.013s.505.331.853.331c.199 0 .37-.025.512-.075.149-.057.277-.117.384-.181s.196-.121.267-.171c.078-.057.146-.085.203-.085.099 0 .188.061.267.181l.555.907a3.607 3.607 0 0 1-1.184.725 4.087 4.087 0 0 1-1.429.256c-.853 0-1.511-.238-1.973-.715-.455-.477-.683-1.163-.683-2.059v-6.613h-1.301a.44.44 0 0 1-.288-.096c-.078-.071-.117-.178-.117-.32v-.757l1.771-.235.437-3.328a.45.45 0 0 1 .139-.256.428.428 0 0 1 .299-.107h.96v3.723h7.467V24.38zm.469-14.272a1.324 1.324 0 0 1-.416.939 1.362 1.362 0 0 1-.95.395 1.301 1.301 0 0 1-.939-.395 1.301 1.301 0 0 1-.395-.939c0-.185.035-.359.107-.523a1.33 1.33 0 0 1 .288-.437c.121-.128.26-.228.416-.299.163-.071.338-.107.523-.107a1.301 1.301 0 0 1 .95.406c.128.121.228.267.299.437.078.164.117.338.117.523zm10.17 5.387c-.057.078-.114.139-.171.181s-.135.064-.235.064a.65.65 0 0 1-.352-.128 5.02 5.02 0 0 0-.48-.299 3.366 3.366 0 0 0-.693-.288c-.27-.092-.604-.139-1.003-.139-.533 0-1.003.096-1.408.288a2.704 2.704 0 0 0-1.024.811c-.27.356-.476.786-.619 1.291a6.567 6.567 0 0 0-.203 1.696c0 .654.075 1.237.224 1.749.149.505.359.931.629 1.28.277.341.608.605.992.789.391.178.829.267 1.312.267.462 0 .843-.053 1.141-.16.299-.114.544-.238.736-.373.199-.135.363-.256.491-.363.135-.114.267-.171.395-.171.156 0 .277.061.363.181l.533.693c-.235.291-.501.541-.8.747s-.622.381-.971.523c-.341.135-.7.235-1.077.299s-.761.096-1.152.096a4.775 4.775 0 0 1-1.888-.373 4.344 4.344 0 0 1-1.504-1.077c-.427-.477-.761-1.059-1.003-1.749s-.363-1.476-.363-2.357a7.2 7.2 0 0 1 .331-2.229 5.126 5.126 0 0 1 .981-1.76 4.506 4.506 0 0 1 1.589-1.163c.633-.277 1.358-.416 2.176-.416.761 0 1.429.124 2.005.373a4.735 4.735 0 0 1 1.547 1.035l-.501.683zm4.63-6.827v15.712h-1.899V8.669h1.899zM89.754 17.8c0-.441-.064-.843-.192-1.205a2.55 2.55 0 0 0-.544-.949 2.313 2.313 0 0 0-.864-.619 2.88 2.88 0 0 0-1.163-.224c-.91 0-1.632.267-2.165.8-.526.526-.853 1.259-.981 2.197h5.909zm1.536 5.066a3.725 3.725 0 0 1-.843.747 5.373 5.373 0 0 1-1.056.512c-.37.135-.754.235-1.152.299a6.735 6.735 0 0 1-1.184.107 5.62 5.62 0 0 1-2.069-.373 4.689 4.689 0 0 1-1.632-1.109c-.455-.491-.811-1.095-1.067-1.813s-.384-1.543-.384-2.475c0-.754.114-1.458.341-2.112a4.989 4.989 0 0 1 1.003-1.696c.434-.484.963-.86 1.589-1.131.626-.277 1.33-.416 2.112-.416.647 0 1.244.11 1.792.331a3.894 3.894 0 0 1 1.429.939c.405.405.722.91.949 1.515.228.597.341 1.28.341 2.048 0 .299-.032.498-.096.597s-.185.149-.363.149h-7.221c.021.683.114 1.276.277 1.781.171.505.405.928.704 1.269.299.334.654.587 1.067.757.412.163.875.245 1.387.245.476 0 .885-.053 1.227-.16a6.194 6.194 0 0 0 1.515-.715c.171-.114.316-.171.437-.171.156 0 .277.061.363.181l.533.693z" style="fill:var(--color6, #424551)"/></symbol><symbol id="icon-Instagram" viewBox="0 0 32 32"><path  d="M29.307 10.507c-.062-1.417-.292-2.391-.62-3.235a6.52 6.52 0 0 0-1.542-2.365 6.574 6.574 0 0 0-2.36-1.537c-.849-.328-1.818-.557-3.235-.62-1.428-.068-1.881-.083-5.501-.083s-4.074.016-5.496.078c-1.417.062-2.391.292-3.235.62a6.52 6.52 0 0 0-2.365 1.542 6.574 6.574 0 0 0-1.537 2.36c-.328.849-.557 1.818-.62 3.235-.068 1.427-.083 1.881-.083 5.501s.016 4.074.078 5.496c.062 1.417.292 2.391.62 3.235a6.585 6.585 0 0 0 1.542 2.365 6.574 6.574 0 0 0 2.36 1.537c.849.328 1.818.557 3.235.62 1.422.063 1.875.078 5.496.078s4.074-.015 5.496-.078c1.417-.062 2.391-.292 3.235-.62a6.822 6.822 0 0 0 3.902-3.902c.328-.849.557-1.818.62-3.235.063-1.422.078-1.875.078-5.496s-.005-4.074-.068-5.496zm-2.401 10.887c-.057 1.302-.276 2.006-.459 2.474a4.422 4.422 0 0 1-2.532 2.532c-.469.182-1.177.401-2.475.458-1.406.063-1.828.078-5.386.078s-3.985-.015-5.387-.078c-1.302-.057-2.006-.276-2.474-.458a4.103 4.103 0 0 1-1.531-.995 4.143 4.143 0 0 1-.995-1.531c-.182-.469-.401-1.177-.458-2.474-.063-1.407-.078-1.829-.078-5.387s.015-3.985.078-5.386c.057-1.302.276-2.006.458-2.474a4.066 4.066 0 0 1 1-1.532 4.143 4.143 0 0 1 1.531-.995c.469-.182 1.177-.401 2.474-.458 1.407-.062 1.829-.078 5.386-.078 3.563 0 3.985.016 5.387.078 1.302.057 2.006.276 2.474.458a4.09 4.09 0 0 1 1.531.995c.443.432.781.953.995 1.532.182.469.401 1.177.459 2.474.062 1.407.078 1.828.078 5.386s-.016 3.975-.078 5.381z" /><path  d="M16.049 9.152c-3.782 0-6.85 3.068-6.85 6.85s3.068 6.85 6.85 6.85c3.782 0 6.85-3.068 6.85-6.85s-3.068-6.85-6.85-6.85zm0 11.294a4.445 4.445 0 0 1 0-8.888 4.444 4.444 0 0 1 0 8.888zM24.77 8.881a1.6 1.6 0 1 1-3.198 0 1.6 1.6 0 0 1 3.198 0z" /></symbol><symbol id="icon-iPhone" viewBox="0 0 32 32"><path fill="#fff" d="M11.334 3.897a2 2 0 0 0-2 2v20.208a2 2 0 0 0 2 2h9.333a2 2 0 0 0 2-2V5.897a2 2 0 0 0-2-2h-.111l-.325.779c-.207.497-.692.82-1.231.82h-6a1.335 1.335 0 0 1-1.231-.82l-.325-.779h-.111zm-4.667 2a4.667 4.667 0 0 1 4.667-4.667h9.333a4.667 4.667 0 0 1 4.667 4.667v20.208a4.667 4.667 0 0 1-4.667 4.667h-9.333a4.667 4.667 0 0 1-4.667-4.667V5.897z" style="fill:var(--color5, #fff)"/></symbol><symbol id="icon-Layouts" viewBox="0 0 32 32"><path  d="M15.404 1.473a1.332 1.332 0 0 1 1.193 0L29.93 8.14a1.334 1.334 0 0 1 0 2.386l-13.333 6.667a1.332 1.332 0 0 1-1.193 0L2.071 10.526a1.334 1.334 0 0 1 0-2.386l13.333-6.667zM5.648 9.332 16 14.508l10.352-5.176L16 4.156 5.648 9.332z" /><path  d="M1.474 15.402a1.332 1.332 0 0 1 1.789-.596L16 21.174l12.737-6.368a1.334 1.334 0 0 1 1.193 2.385l-13.333 6.667a1.332 1.332 0 0 1-1.193 0L2.071 17.191a1.332 1.332 0 0 1-.596-1.789z" /><path  d="M1.474 22.069a1.332 1.332 0 0 1 1.789-.596L16 27.842l12.737-6.369a1.334 1.334 0 0 1 1.193 2.385l-13.333 6.667a1.332 1.332 0 0 1-1.193 0L2.071 23.858a1.332 1.332 0 0 1-.596-1.789z"/></symbol><symbol id="icon-Left" viewBox="0 0 32 32"><path d="M12.276 22.943a1.333 1.333 0 0 1-1.886 0l-6-6a1.333 1.333 0 0 1 0-1.886l6-6a1.333 1.333 0 1 1 1.886 1.886l-3.724 3.724h18.114a1.333 1.333 0 0 1 0 2.666H8.552l3.724 3.724a1.333 1.333 0 0 1 0 1.886z"/></symbol><symbol id="icon-like" viewBox="0 0 32 32"><path  d="M18.909 4.335a.526.526 0 0 0-.453.26l-.008.014-6.115 9.914v13.146h11.448a.523.523 0 0 0 .511-.41l.005-.021 3.4-13.28a.524.524 0 0 0-.514-.623H22c-.868 0-1.747-.29-2.386-.914-.672-.656-.984-1.596-.784-2.609l.958-4.851a.524.524 0 0 0-.514-.625h-.365zM9.667 27.668V15.477H4.942a.524.524 0 0 0-.524.52L4.333 27.14a.524.524 0 0 0 .524.528h4.81zm.589-14.857 5.907-9.576a3.192 3.192 0 0 1 2.746-1.567h.365a3.19 3.19 0 0 1 3.13 3.809l-.958 4.851c-.017.086-.006.126-.003.134s.009.026.034.049c.056.054.222.156.524.156h5.183a3.19 3.19 0 0 1 3.114 3.883l-.005.021-3.402 13.288a3.191 3.191 0 0 1-3.109 2.475H4.858a3.19 3.19 0 0 1-3.19-3.215l.085-11.143a3.19 3.19 0 0 1 3.19-3.166h5.314z"/></symbol><symbol id="icon-Linked-In" viewBox="0 0 32 32"><path d="m29.327 29.333.007-.001v-9.78c0-4.785-1.03-8.47-6.623-8.47-2.689 0-4.493 1.476-5.23 2.874h-.078v-2.428H12.1v17.803h5.522v-8.816c0-2.321.44-4.566 3.315-4.566 2.832 0 2.874 2.649 2.874 4.715v8.668h5.517zM3.107 11.53h5.529v17.803H3.107V11.53zM5.869 2.667c-1.768 0-3.202 1.434-3.202 3.202s1.434 3.232 3.202 3.232 3.202-1.464 3.202-3.232a3.204 3.204 0 0 0-3.202-3.202z" /></symbol><symbol id="icon-logo" viewBox="0 0 189 32"><path fill="#1e212c" d="M0 16.145C0 7.272 4.8 1.89 12.655 1.89c5.964 0 10.764 3.636 11.636 9.018.145.582-.291 1.018-.873 1.018h-3.782c-.436 0-.727-.291-.873-.727-.727-2.764-3.055-4.509-6.109-4.509-4.218 0-6.836 3.636-6.836 9.455S8.436 25.6 12.8 25.6c3.055 0 5.236-1.6 6.109-4.218.145-.436.436-.727.873-.727h3.782c.582 0 1.018.582.873 1.018-.873 5.236-5.527 8.727-11.636 8.727-8 0-12.8-5.527-12.8-14.255zM35.345 29.673h-4.218c-.436 0-.727-.291-.727-.727V3.782c0-.582.582-1.164 1.164-1.164h10.182c5.964 0 9.6 3.345 9.6 8.582 0 3.055-1.455 5.818-3.927 7.273-.582.291-.727 1.018-.436 1.455l4.509 8.582c.291.436-.145 1.018-.582 1.018h-4.8a.798.798 0 0 1-.727-.436l-4.218-8.727c-.145-.436-.582-.582-1.018-.582h-3.345c-.436 0-.727.291-.727.727v8.582c.145.291-.291.582-.727.582zm.873-14.837c0 .436.291.727.727.727h4.364c2.909 0 4.509-1.6 4.509-4.218s-1.745-4.218-4.509-4.218h-4.218c-.436 0-.727.291-.727.727v6.982h-.145zM74.909 29.673h-16a.994.994 0 0 1-1.018-1.018V3.637a.994.994 0 0 1 1.018-1.018h16a.994.994 0 0 1 1.018 1.018v2.764a.994.994 0 0 1-1.018 1.018H64.291c-.436 0-.727.291-.727.727v4.945c0 .436.291.727.727.727h9.891a.994.994 0 0 1 1.018 1.018v2.473a.994.994 0 0 1-1.018 1.018h-9.891c-.436 0-.727.291-.727.727v5.527c0 .436.291.727.727.727h10.618a.994.994 0 0 1 1.018 1.018v2.764c0 .145-.436.582-1.018.582zM97.454 23.127h-8.291c-.436 0-.727.291-.873.582l-1.6 5.382c-.145.436-.436.582-.873.582h-3.782c-.582 0-1.018-.582-.873-1.164L89.889 3.2c.145-.291.436-.582.873-.582h5.382c.436 0 .727.291.873.582l8.727 25.309c.145.582-.291 1.164-.873 1.164h-4.218c-.436 0-.727-.291-.873-.582l-1.6-5.382c0-.291-.436-.582-.727-.582zm-7.127-4.218h5.964c.291 0 .436-.291.436-.582l-3.2-10.182h-.291l-3.2 10.182c-.145.291 0 .582.291.582zM114.909 28.655V8c0-.436-.291-.727-.727-.727h-6.4c-.582 0-1.164-.436-1.164-1.164V3.636c0-.582.436-1.164 1.164-1.164h19.782c.582 0 1.164.436 1.164 1.164v2.473c0 .582-.436 1.164-1.164 1.164h-6.4c-.436 0-.727.291-.727.727v20.8a.994.994 0 0 1-1.018 1.018h-3.636c-.436-.146-.873-.582-.873-1.164zM150.982 29.673h-16a.994.994 0 0 1-1.018-1.018V3.637a.994.994 0 0 1 1.018-1.018h16A.994.994 0 0 1 152 3.637v2.764a.994.994 0 0 1-1.018 1.018h-10.618c-.436 0-.727.291-.727.727v4.945c0 .436.291.727.727.727h9.891a.994.994 0 0 1 1.018 1.018v2.473a.994.994 0 0 1-1.018 1.018h-9.891c-.436 0-.727.291-.727.727v5.527c0 .436.291.727.727.727h10.618A.994.994 0 0 1 152 26.326v2.764c0 .145-.436.582-1.018.582z" style="fill:var(--color7, #1e212c)"/><path fill="#ff3f3a" d="m171.2 14.109-9.018-11.782c-.582-.582-1.309-.873-2.036-.873s-1.455.291-2.036.873a3.098 3.098 0 0 0 0 4.073l7.127 9.6-7.127 9.6a3.098 3.098 0 0 0 0 4.073c.582.582 1.309.873 2.036.873s1.455-.291 2.036-.873l9.018-11.782c1.018-.873 1.018-2.618 0-3.782zM175.044 14.109l9.018-11.782c.582-.582 1.309-.873 2.036-.873s1.455.291 2.036.873a3.098 3.098 0 0 1 0 4.073l-7.127 9.6 7.127 9.6a3.098 3.098 0 0 1 0 4.073c-.582.582-1.309.873-2.036.873s-1.455-.291-2.036-.873l-9.018-11.782c-1.018-.873-1.018-2.618 0-3.782z" style="fill:var(--color1, #ff3f3a)"/></symbol><symbol id="icon-logo-footer" viewBox="0 0 189 32"><path fill="#fff" d="M0 16.147C0 7.274 4.8 1.892 12.655 1.892c5.964 0 10.764 3.636 11.636 9.018.145.582-.291 1.018-.873 1.018h-3.782c-.436 0-.727-.291-.873-.727-.727-2.764-3.055-4.509-6.109-4.509-4.218 0-6.836 3.636-6.836 9.455s2.618 9.455 6.982 9.455c3.055 0 5.236-1.6 6.109-4.218.145-.436.436-.727.873-.727h3.782c.582 0 1.018.582.873 1.018-.873 5.236-5.527 8.727-11.636 8.727-8 0-12.8-5.527-12.8-14.255zM35.345 29.674h-4.218c-.436 0-.727-.291-.727-.727V3.783c0-.582.582-1.164 1.164-1.164h10.182c5.964 0 9.6 3.345 9.6 8.582 0 3.055-1.455 5.818-3.927 7.273-.582.291-.727 1.018-.436 1.455l4.509 8.582c.291.436-.145 1.018-.582 1.018h-4.8a.798.798 0 0 1-.727-.436l-4.218-8.727c-.145-.436-.582-.582-1.018-.582h-3.345c-.436 0-.727.291-.727.727v8.582c.145.291-.291.582-.727.582zm.873-14.836c0 .436.291.727.727.727h4.364c2.909 0 4.509-1.6 4.509-4.218s-1.745-4.218-4.509-4.218h-4.218c-.436 0-.727.291-.727.727v6.982h-.145zM74.909 29.674h-16a.994.994 0 0 1-1.018-1.018V3.638a.994.994 0 0 1 1.018-1.018h16a.994.994 0 0 1 1.018 1.018v2.764a.994.994 0 0 1-1.018 1.018H64.291c-.436 0-.727.291-.727.727v4.945c0 .436.291.727.727.727h9.891a.994.994 0 0 1 1.018 1.018v2.473a.994.994 0 0 1-1.018 1.018h-9.891c-.436 0-.727.291-.727.727v5.527c0 .436.291.727.727.727h10.618a.994.994 0 0 1 1.018 1.018v2.764c0 .145-.436.582-1.018.582zM97.454 23.129h-8.291c-.436 0-.727.291-.873.582l-1.6 5.382c-.145.436-.436.582-.873.582h-3.782c-.582 0-1.018-.582-.873-1.164l8.727-25.309c.145-.291.436-.582.873-.582h5.382c.436 0 .727.291.873.582l8.727 25.309c.145.582-.291 1.164-.873 1.164h-4.218c-.436 0-.727-.291-.873-.582l-1.6-5.382c0-.291-.436-.582-.727-.582zm-7.127-4.218h5.964c.291 0 .436-.291.436-.582l-3.2-10.182h-.291l-3.2 10.182c-.145.291 0 .582.291.582zM114.909 28.657V8.003c0-.436-.291-.727-.727-.727h-6.4c-.582 0-1.164-.436-1.164-1.164V3.639c0-.582.436-1.164 1.164-1.164h19.782c.582 0 1.164.436 1.164 1.164v2.473c0 .582-.436 1.164-1.164 1.164h-6.4c-.436 0-.727.291-.727.727v20.8a.994.994 0 0 1-1.018 1.018h-3.636c-.436-.145-.873-.582-.873-1.164zM150.982 29.674h-16a.994.994 0 0 1-1.018-1.018V3.638a.994.994 0 0 1 1.018-1.018h16A.994.994 0 0 1 152 3.638v2.764a.994.994 0 0 1-1.018 1.018h-10.618c-.436 0-.727.291-.727.727v4.945c0 .436.291.727.727.727h9.891a.994.994 0 0 1 1.018 1.018v2.473a.994.994 0 0 1-1.018 1.018h-9.891c-.436 0-.727.291-.727.727v5.527c0 .436.291.727.727.727h10.618A.994.994 0 0 1 152 26.327v2.764c0 .145-.436.582-1.018.582z" style="fill:var(--color5, #fff)"/><path fill="#ff3f3a" d="m171.2 14.109-9.018-11.782c-.582-.582-1.309-.873-2.036-.873s-1.455.291-2.036.873a3.098 3.098 0 0 0 0 4.073l7.127 9.6-7.127 9.6a3.098 3.098 0 0 0 0 4.073c.582.582 1.309.873 2.036.873s1.455-.291 2.036-.873l9.018-11.782c1.018-.873 1.018-2.618 0-3.782zM175.044 14.109l9.018-11.782c.582-.582 1.309-.873 2.036-.873s1.455.291 2.036.873a3.098 3.098 0 0 1 0 4.073l-7.127 9.6 7.127 9.6a3.098 3.098 0 0 1 0 4.073c-.582.582-1.309.873-2.036.873s-1.455-.291-2.036-.873l-9.018-11.782c-1.018-.873-1.018-2.618 0-3.782z" style="fill:var(--color1, #ff3f3a)"/></symbol><symbol id="icon-logo-org1" viewBox="0 0 67 32"><path d="M-24.96-28.16H91.52v89.6H-24.96v-89.6z"/></symbol><symbol id="icon-logo-org2" viewBox="0 0 67 32"><path d="M-8.96-17.28h87.04v67.2H-8.96v-67.2z"/></symbol><symbol id="icon-logo-org3" viewBox="0 0 67 32"><path d="M-6.4-15.36h81.92v62.72H-6.4v-62.72z"/></symbol><symbol id="icon-Mail" viewBox="0 0 32 32"><path fill="#fff" d="M30.334 23.999V9.332a4 4 0 0 0-4-4H5.667a4 4 0 0 0-4 4v14.667a4 4 0 0 0 4 4h20.667a4 4 0 0 0 4-4zm-2.667-11.654v11.654c0 .736-.597 1.333-1.333 1.333H5.667a1.333 1.333 0 0 1-1.333-1.333V12.345l9.418 6.404a4 4 0 0 0 4.498 0l9.417-6.404zm-.015-3.215L16.75 16.543a1.331 1.331 0 0 1-1.499 0L4.349 9.13c.097-.64.65-1.131 1.318-1.131h20.667c.668 0 1.221.491 1.318 1.131z" style="fill:var(--color5, #fff)"/></symbol><symbol id="icon-Profile" viewBox="0 0 32 32"><path fill="#424551" d="M16 4.334a4.667 4.667 0 1 0 0 9.334 4.667 4.667 0 0 0 0-9.334zM8.667 9.001a7.333 7.333 0 1 1 14.666 0A7.333 7.333 0 0 1 8.667 9zM8.139 20.334c-.924 0-1.647.45-1.94 1.097-.406.895-.774 1.961-.86 2.971-.039.452.15.785.409.946 1.372.852 4.552 2.319 10.253 2.319s8.88-1.467 10.253-2.319c.26-.161.448-.494.409-.946-.087-1.011-.454-2.076-.86-2.971-.293-.647-1.016-1.097-1.94-1.097H8.14zm-4.369-.005c.811-1.787 2.621-2.662 4.369-2.662h15.723c1.748 0 3.558.875 4.369 2.662.466 1.027.965 2.407 1.089 3.845.112 1.31-.432 2.677-1.659 3.439-1.805 1.121-5.474 2.721-11.66 2.721s-9.855-1.6-11.66-2.721c-1.227-.762-1.771-2.13-1.659-3.439.123-1.438.623-2.818 1.089-3.845z" style="fill:var(--color6, #424551)"/></symbol><symbol id="icon-Right" viewBox="0 0 32 32"><path  d="M19.724 9.057a1.333 1.333 0 0 1 1.886 0l6 6a1.333 1.333 0 0 1 0 1.886l-6 6a1.333 1.333 0 1 1-1.886-1.886l3.724-3.724H5.334a1.333 1.333 0 0 1 0-2.666h18.114l-3.724-3.724a1.333 1.333 0 0 1 0-1.886z"/></symbol><symbol id="icon-small" viewBox="0 0 32 32"><path fill="#ff3f3a" d="M32 16c0 8.837-7.163 16-16 16S0 24.837 0 16 7.163 0 16 0s16 7.163 16 16z" style="fill:var(--color1, #ff3f3a)"/><path fill="#fff" d="M20 15.467c.41.237.41.829 0 1.066l-5.538 3.198a.615.615 0 0 1-.923-.533v-6.395c0-.474.513-.77.923-.533L20 15.468z" style="fill:var(--color5, #fff)"/></symbol><symbol id="icon-Star" viewBox="0 0 32 32"><path  d="M13.559 2.934c.926-2.136 3.956-2.136 4.882 0l2.802 6.462 7.012.668c2.318.221 3.254 3.102 1.509 4.643l-5.28 4.662 1.531 6.875c.506 2.273-1.945 4.053-3.95 2.87L16 25.533l-6.065 3.581c-2.005 1.184-4.456-.597-3.95-2.87l1.531-6.875-5.28-4.662c-1.745-1.541-.809-4.422 1.509-4.643l7.012-.668 2.802-6.462zm5.243 7.521L16 3.993l-2.802 6.462a2.662 2.662 0 0 1-2.189 1.59l-7.012.668 5.28 4.662a2.66 2.66 0 0 1 .836 2.573l-1.531 6.875 6.065-3.581a2.659 2.659 0 0 1 2.705 0l6.065 3.581-1.531-6.875a2.658 2.658 0 0 1 .836-2.573l5.28-4.662-7.012-.668a2.662 2.662 0 0 1-2.189-1.59z" /></symbol><symbol id="icon-Telegram" viewBox="0 0 32 32"><path  d="m12.844 20.242-.485 7.445c.694 0 .995-.325 1.355-.716l3.255-3.393 6.744 5.388c1.237.752 2.108.356 2.442-1.241l4.427-22.629.001-.001c.392-1.995-.661-2.775-1.866-2.285L2.695 13.678c-1.776.752-1.749 1.832-.302 2.321l6.653 2.257L24.499 7.708c.727-.525 1.388-.235.845.291l-12.5 12.244z"/></symbol><symbol id="icon-Twitter" viewBox="0 0 32 32"><path  d="M30 7.696a11.866 11.866 0 0 1-3.298.866 5.575 5.575 0 0 0 2.525-3.041 11.895 11.895 0 0 1-3.65 1.335 5.847 5.847 0 0 0-4.192-1.737c-3.172 0-5.744 2.463-5.744 5.498 0 .431.051.851.149 1.253-4.773-.23-9.005-2.419-11.838-5.746a5.284 5.284 0 0 0-.777 2.764c0 1.908 1.015 3.592 2.555 4.577a5.941 5.941 0 0 1-2.602-.69v.069c0 2.664 1.981 4.887 4.607 5.393a6.06 6.06 0 0 1-1.513.193c-.371 0-.73-.035-1.081-.102.731 2.186 2.852 3.776 5.365 3.82-1.965 1.474-4.442 2.351-7.133 2.351-.464 0-.92-.027-1.37-.075a16.762 16.762 0 0 0 8.804 2.475c10.566 0 16.342-8.38 16.342-15.648l-.019-.712a11.216 11.216 0 0 0 2.873-2.841z" /></symbol><symbol id="icon-YouTube" viewBox="0 0 32 32"><path d="M28.52 5.485C26.016 4.8 15.999 4.8 15.999 4.8s-10.016 0-12.521.659c-1.344.369-2.451 1.476-2.82 2.847-.659 2.504-.659 7.697-.659 7.697s0 5.219.659 7.697a4.011 4.011 0 0 0 2.821 2.821c2.53.685 12.521.685 12.521.685s10.016 0 12.52-.659a4.012 4.012 0 0 0 2.821-2.82C32 21.223 32 16.03 32 16.03s.026-5.219-.659-7.723a4.012 4.012 0 0 0-2.82-2.821zm-7.38 10.517-8.329 4.797v-9.595l8.329 4.797z" /></symbol><symbol id="icon-Google" viewBox="0 0 32 32">
<path  d="M16.282 14.003h13.168c0.144 0.811 0.216 1.587 0.216 2.325 0 2.627-0.55 4.973-1.653 7.038-1.094 2.048-2.701 3.696-4.653 4.809l-0.059 0.031c-2.040 1.162-4.381 1.744-7.019 1.744-0.015 0-0.033 0-0.051 0-1.944 0-3.793-0.404-5.468-1.134l0.088 0.034c-1.729-0.732-3.207-1.735-4.452-2.971l0.001 0.001c-1.235-1.244-2.237-2.721-2.935-4.358l-0.035-0.091c-0.694-1.586-1.098-3.434-1.098-5.376 0-0.020 0-0.040 0-0.059v0.003c0-1.901 0.366-3.712 1.099-5.43 0.732-1.728 1.734-3.204 2.969-4.449l-0.001 0.001c1.244-1.234 2.72-2.237 4.357-2.935l0.091-0.035c1.587-0.695 3.436-1.099 5.379-1.099 0.018 0 0.037 0 0.055 0h-0.003c3.632 0 6.749 1.216 9.352 3.651l-3.792 3.65c-1.488-1.44-3.342-2.16-5.557-2.16-1.563 0-3.006 0.392-4.333 1.179-1.319 0.787-2.385 1.871-3.128 3.164l-0.022 0.042c-0.732 1.25-1.163 2.751-1.163 4.354 0 0.023 0 0.047 0 0.070l-0-0.004c0 1.598 0.387 3.072 1.162 4.422 0.766 1.335 1.833 2.418 3.112 3.183l0.040 0.022c1.221 0.742 2.698 1.181 4.277 1.181 0.019 0 0.038-0 0.057-0h-0.003c1.053 0 2.021-0.144 2.906-0.435 0.883-0.291 1.61-0.654 2.179-1.090 0.57-0.437 1.066-0.933 1.488-1.49 0.426-0.557 0.736-1.085 0.936-1.581s0.336-0.968 0.41-1.416h-7.92v-4.794z"></path>
</symbol><symbol id="icon-Cross" viewBox="0 0 32 32">
<path d="M5.724 5.724c0.241-0.241 0.575-0.39 0.943-0.39s0.701 0.149 0.943 0.39l8.391 8.391 8.391-8.391c0.243-0.251 0.583-0.407 0.959-0.407 0.736 0 1.333 0.597 1.333 1.333 0 0.376-0.156 0.716-0.407 0.959l-8.391 8.391 8.391 8.391c0.232 0.24 0.374 0.566 0.374 0.926 0 0.736-0.597 1.333-1.333 1.333-0.36 0-0.687-0.143-0.927-0.375l-8.39-8.39-8.391 8.391c-0.24 0.232-0.566 0.374-0.926 0.374-0.736 0-1.333-0.597-1.333-1.333 0-0.36 0.143-0.687 0.375-0.927l8.39-8.39-8.391-8.391c-0.241-0.241-0.39-0.575-0.39-0.943s0.149-0.701 0.39-0.943v0z"></path>
</defs></svg>

